<svg class="fill-current text-cinnabar w-20" viewBox="0 0 76 72" fill="none" xmlns="http://www.w3.org/2000/svg">
  <path d="M66.29 45.956a10.61 10.61 0 0 1-.42 3.641c-.552 1.847-2.061 3.778-4.06 4.303-1.44.38-3.416-.19-4.762-1.24.07-.227.109-.478.109-.73 0-1.383-1.151-2.508-2.567-2.508-1.416 0-2.568 1.125-2.568 2.509 0 .737.327 1.39.84 1.855l-5.25 12.01h13.94l-4.247-9.715a10.02 10.02 0 0 0 2.995.745c3.003.259 5.835-1.642 7.352-4.097 1.828-2.957 2-6.172 1.252-9.334l-2.614 2.561Z" fill="#AD3230"/>
  <path d="M36.845 72 0 36 36.845 0l36.844 36-36.844 36Z" fill="#AD3230"/>
  <path d="m8.457 15.67-3.37-.1L7.61 25.834l1.587-1.551-.74-8.612Zm8.191 47.17.84 3.436 10.2-.494-2.054-2.015-8.986-.927Zm-6.573-52.132 1.012 11.721 9.95-9.722-10.962-1.999Zm13.21 50.766L12.922 51.349l.755 9.182 9.608.943Zm30.022-48.117 6.97 6.81 7.399-3.07a9.086 9.086 0 0 0 4.808-4.637L76 4.66l-22.693 8.697Zm16.313 5.429-8.503 2.189 4.56 4.454a21.42 21.42 0 0 0 3.259-5.108l.684-1.535Z" fill="#BAC1C6"/>
  <path d="m17.863 30.574 1.734 5.686c.031.076.148.478.148.554h.031c.195-.669 1.393-4.598 1.945-6.24h4.56v1.292h-.242c-.755 0-.755.114-.755.798v5.937c0 .608 0 .752.716.752h.28v1.292h-4.17v-1.292h.265c.7 0 .7-.16.7-.752v-6.735h-.031l-2.552 8.179H18.71l-2.466-8.179h-.03v6.788c0 .684.147.7.73.7h.242v1.291h-3.921v-1.292h.264c.74 0 .74-.16.74-.752v-6.02c0-.555-.063-.715-.74-.715h-.264v-1.292h4.598Zm9.623 10.052v-1.293h.311c.7 0 .7-.22.7-.684V32.5c0-.402 0-.653-.653-.653h-.358v-1.292h7.858v2.957H33.64v-.799c0-.402-.047-.608-.638-.608h-2.225v6.545c0 .479 0 .684.685.684h.443v1.293h-4.419ZM40.61 30.578v1.292h-.357c-.591 0-.67.19-.67.653v1.931h1.915c.412-2.554 2.077-4.18 4.66-4.18 3.104 0 4.605 2.204 4.605 5.16 0 3.08-1.602 5.512-4.706 5.512-2.957 0-4.497-2.106-4.63-4.82h-1.843v2.646c0 .289 0 .578.669.578h.358v1.292h-4.302v-1.293h.358c.653 0 .653-.22.653-.699v-6.096c0-.479-.031-.7-.654-.7h-.357v-1.292h4.302v.015Zm5.478 8.78c1.859 0 2.271-2.106 2.271-3.885 0-.654 0-3.596-2.24-3.596-1.603 0-2.334 1.581-2.334 3.801 0 1.794.475 3.68 2.303 3.68Zm11.047-8.904 2.777 7.905c.327.927.506.988.934.988h.24v1.292h-4.278v-1.292h.428c.249 0 .505 0 .505-.304 0-.114-.1-.403-.132-.51l-.264-.797h-3.19l-.296.813c-.015.06-.1.334-.1.449 0 .273.248.35.567.35h.342v1.291h-3.843v-1.292c.67 0 .848-.06 1.113-.828l2.894-8.065h2.303Zm-2.63 5.784h2.497l-1.229-3.527h-.031l-1.237 3.527Z" fill="#fff"/>
  <path d="M54.59 49.418c-1.416 0-2.567 1.125-2.567 2.508 0 .738.326 1.392.84 1.855l-1.96 4.477 6.23-6.088c.009-.076.017-.16.017-.244.007-1.39-1.144-2.508-2.56-2.508Z" fill="#EA504C"/>
</svg>